# xmcd
# Copyright (C) 1995-1998 Ti Kan
#
# Track frame offsets:
#       150
#       18755
#       41552
#       60809
#       80961
#       102685
#       123250
#       149813
#       170740
#       191599
#       214622
#       237410
#
# Disc length: 3422 seconds
#
# Revision: 0
# Processed by: cddbd v1.5.2PL0 Copyright (c) Steve Scherf et al.
# Submitted via: CD-Import v1.0
#
DISCID=ad0d5c0c
DTITLE=Seychal-Mills - Dandelions
DYEAR=07
DGENRE=
TTITLE0=Montage
TTITLE1=Was Ist Also Wahrheit?
TTITLE2=Machines
TTITLE3=We Want Decibels
TTITLE4=Permafrost
TTITLE5=Weathervane
TTITLE6=Last Breast Of A Dying Bull
TTITLE7=Tipasa
TTITLE8=Birds On Wires
TTITLE9=Take Me In Your Arms
TTITLE10=The Dream Of Lucy Westenra
TTITLE11=Sextine
EXTD=
EXTT0=
EXTT1=
EXTT2=
EXTT3=
EXTT4=
EXTT5=
EXTT6=
EXTT7=
EXTT8=
EXTT9=
EXTT10=
EXTT11=
PLAYORDER=
